<svg width="25" height="24" viewBox="0 0 25 24" fill="none" xmlns="http://www.w3.org/2000/svg">
<path d="M9.33337 21V15C9.33337 14.4696 9.54409 13.9609 9.91916 13.5858C10.2942 13.2107 10.8029 13 11.3334 13H13.3334C13.8638 13 14.3725 13.2107 14.7476 13.5858C15.1227 13.9609 15.3334 14.4696 15.3334 15V21M5.33337 12H3.33337L12.3334 3L21.3334 12H19.3334V19C19.3334 19.5304 19.1227 20.0391 18.7476 20.4142C18.3725 20.7893 17.8638 21 17.3334 21H7.33337C6.80294 21 6.29423 20.7893 5.91916 20.4142C5.54409 20.0391 5.33337 19.5304 5.33337 19V12Z" stroke="#0D0D12" stroke-width="2" stroke-linecap="round" stroke-linejoin="round"/>
</svg>
