<svg width="15" height="20" viewBox="0 0 15 20" fill="none" xmlns="http://www.w3.org/2000/svg">
<path d="M1.66663 19V17C1.66663 15.9391 2.08805 14.9217 2.8382 14.1716C3.58834 13.4214 4.60576 13 5.66663 13H9.66663C10.7275 13 11.7449 13.4214 12.4951 14.1716C13.2452 14.9217 13.6666 15.9391 13.6666 17V19M3.66663 5C3.66663 6.06087 4.08805 7.07828 4.8382 7.82843C5.58834 8.57857 6.60576 9 7.66663 9C8.72749 9 9.74491 8.57857 10.4951 7.82843C11.2452 7.07828 11.6666 6.06087 11.6666 5C11.6666 3.93913 11.2452 2.92172 10.4951 2.17157C9.74491 1.42143 8.72749 1 7.66663 1C6.60576 1 5.58834 1.42143 4.8382 2.17157C4.08805 2.92172 3.66663 3.93913 3.66663 5Z" stroke="#A4ACB9" stroke-width="2" stroke-linecap="round" stroke-linejoin="round"/>
</svg>
